<svg style="" class="cs-ico-linkedin" xmlns="http://www.w3.org/2000/svg" viewBox="0 0 24 24">
  <g fill="currentColor">
    <circle cx="7.3" cy="6.8" r="1.3"/>
    <path d="M18,18.1l0.1-5.7c0-3.2-1.8-3.7-2.7-3.7c-1.4,0-2.3,0.6-2.7,0.9V8.7H10v9.4h2.6v-5.8c0,0,0.3-1.2,1.7-1.2&#10;      c0.8,0,1,0.5,1,1.2v5.8H18z"/>
    <rect x="5.9" y="8.7" width="2.7" height="9.4"/>
  </g>
  <path stroke-width="0" d="M12,0C5.4,0,0,5.4,0,12s5.4,12,12,12s12-5.4,12-12S18.6,0,12,0z M8.6,18.1H5.9V8.7h2.7V18.1z M7.3,8.1C6.6,8.1,6,7.5,6,6.8&#10;    s0.6-1.3,1.3-1.3s1.3,0.6,1.3,1.3C8.6,7.6,8,8.1,7.3,8.1z M18,18.1h-2.7v-5.8c0-0.7-0.2-1.2-1-1.2c-1.4,0-1.7,1.2-1.7,1.2v5.8H10&#10;    V8.7h2.7v0.9c0.4-0.3,1.3-0.9,2.7-0.9c0.9,0,2.7,0.5,2.7,3.7L18,18.1L18,18.1z"/>
</svg>