<svg style="" class="cs-ico-facebook" xmlns="http://www.w3.org/2000/svg" viewBox="0 0 24 24">
  <path fill="currentColor" d="M13.1,8.1H15L14.9,6H13c-1.5,0-2.7,1.3-2.7,3v1.2H8.2v2h2.1v5.9h2.3v-5.9H15v-2h-2.4V8.8 C12.6,8.4,12.9,8.1,13.1,8.1z"/>
  <path stroke-width="0" class="symbol" d="M12-0.1c-6.7,0-12,5.4-12,12c0,6.7,5.4,12,12,12c6.7,0,12-5.4,12-12C24.1,5.3,18.7-0.1,12-0.1z M15,8.1h-1.9 c-0.2,0-0.5,0.3-0.5,0.7v1.4H15v2h-2.4v5.9h-2.3v-5.9H8.2v-2h2.1V9c0-1.7,1.2-3,2.7-3h1.9L15,8.1L15,8.1z"/>
</svg>