<svg viewBox="0 0 24 24.009" class="cs-ico-menu-close" xmlns="http://www.w3.org/2000/svg" aria-labelledby="title" role="img">
      <title>Ãcone para fechar o menu</title>
      <path d="M16.067,12.009l7.092-7.091c1.121-1.121,1.121-2.938,0-4.058c-1.121-1.121-2.938-1.121-4.058,0 l-7.092,7.092L4.918,0.84C3.797-0.28,1.98-0.28,0.86,0.84c-1.121,1.121-1.121,2.938,0,4.058l7.092,7.111L0.84,19.101 c-1.121,1.121-1.121,2.938,0,4.059c0.561,0.56,1.295,0.85,2.029,0.85c0.734,0,1.469-0.271,2.029-0.85l7.111-7.092l7.092,7.092 c0.561,0.56,1.294,0.85,2.028,0.85s1.469-0.271,2.029-0.85c1.121-1.121,1.121-2.938,0-4.059L16.067,12.009z"/>
    </svg>