<svg style="" class="cs-ico-twitter" xmlns="http://www.w3.org/2000/svg" viewBox="0 0 24 24">
  <path fill="currentColor" d="M5.3,16.4c1.2,0.7,2.6,1.2,4.2,1.2c5.1,0,7.9-4.3,7.9-7.9c0-0.2,0-0.3,0-0.4c0.5-0.4,1-0.9,1.5-1.4&#10;    c-0.5,0.2-1,0.3-1.6,0.4c0.6-0.3,1-0.9,1.2-1.5c-0.6,0.3-1.2,0.6-1.8,0.7c-0.5-0.6-1.2-0.9-2-0.9c-1.6,0-2.8,1.3-2.8,2.8&#10;    c0,0.2,0.1,0.4,0.1,0.6C9.7,9.9,7.7,8.8,6.3,7.1C6,7.5,5.9,8,5.9,8.5c0,1,0.5,1.8,1.2,2.3c-0.5,0-0.9-0.1-1.3-0.3&#10;    c0,1.3,0.9,2.4,2.2,2.7c-0.2,0.1-0.4,0.1-0.7,0.1c-0.2,0-0.3,0-0.5,0c0.4,1.1,1.4,1.9,2.6,1.9C8.5,16,7.3,16.4,6,16.4&#10;    C5.7,16.4,5.5,16.4,5.3,16.4z"/>
  <path stroke-width="0" d="M12,0C5.4,0,0,5.4,0,12s5.4,12,12,12s12-5.4,12-12S18.6,0,12,0z M17.4,9.3c0,0.1,0,0.2,0,0.4c0,3.6-2.8,7.9-7.9,7.9&#10;    c-1.6,0-3-0.5-4.2-1.2c0.2,0,0.4,0,0.7,0c1.3,0,2.5-0.4,3.4-1.2c-1.2,0-2.2-0.8-2.6-1.9c0.2,0,0.3,0,0.5,0c0.3,0,0.5,0,0.7-0.1&#10;    c-1.3-0.3-2.2-1.4-2.2-2.7l0,0c0.4,0.2,0.8,0.3,1.3,0.3c-0.7-0.5-1.2-1.3-1.2-2.3c0-0.5,0.1-1,0.4-1.4C7.7,8.8,9.7,9.9,12,10&#10;    c0-0.2-0.1-0.4-0.1-0.6c0-1.5,1.2-2.8,2.8-2.8c0.8,0,1.5,0.3,2,0.9c0.6-0.1,1.2-0.4,1.8-0.7c-0.2,0.6-0.6,1.2-1.2,1.5&#10;    c0.6-0.1,1.1-0.2,1.6-0.4C18.4,8.4,17.9,8.9,17.4,9.3z"/>
</svg>