<svg viewBox="0 0 24 24" class="cs-ico-menu" xmlns="http://www.w3.org/2000/svg" aria-labelledby="title" role="img">
      <title>Ãcone para exibir Menu</title>
      <path d="M21.7,1.2H2.3C1,1.2,0,2.2,0,3.5s1,2.3,2.3,2.3h19.4c1.3,0,2.3-1,2.3-2.3S23,1.2,21.7,1.2z"/>
      <path d="M21.7,9.7H2.3C1,9.7,0,10.7,0,12s1,2.3,2.3,2.3h19.4c1.3,0,2.3-1,2.3-2.3S23,9.7,21.7,9.7z"/>
      <path d="M21.7,18.2H2.3c-1.3,0-2.3,1-2.3,2.3c0,1.3,1,2.3,2.3,2.3h19.4c1.3,0,2.3-1,2.3-2.3C24,19.2,23,18.2,21.7,18.2z"/>
    </svg>